<?xml version="1.0" standalone="no"?>
<!DOCTYPE svg PUBLIC "-//W3C//DTD SVG 20010904//EN"
 "http://www.w3.org/TR/2001/REC-SVG-20010904/DTD/svg10.dtd">
<svg version="1.0" xmlns="http://www.w3.org/2000/svg"
 width="1024.000000pt" height="341.000000pt" viewBox="0 0 1024.000000 341.000000"
 preserveAspectRatio="xMidYMid meet">
<metadata>
Created by potrace 1.15, written by Peter Selinger 2001-2017
</metadata>
<g transform="translate(0.000000,341.000000) scale(0.100000,-0.100000)"
fill="#000000" stroke="none">
<path d="M455 3370 c-106 -23 -162 -42 -230 -81 -159 -90 -236 -237 -222 -423
8 -109 39 -180 111 -252 76 -75 160 -117 351 -175 77 -23 158 -50 181 -59 95
-41 145 -117 124 -189 -12 -43 -25 -58 -74 -84 -34 -17 -63 -22 -171 -25 -175
-5 -295 19 -461 94 -13 6 -50 -335 -37 -346 28 -24 230 -57 402 -66 347 -18
612 69 723 238 49 74 68 138 75 244 10 153 -26 252 -123 345 -70 65 -162 108
-359 164 -234 67 -287 100 -287 180 0 48 26 84 83 113 90 45 331 40 487 -11
37 -11 72 -21 77 -22 6 0 15 57 22 130 18 201 19 190 -24 203 -152 45 -484 56
-648 22z"/>
<path d="M7512 3335 c-92 -20 -165 -57 -227 -116 -75 -71 -98 -133 -93 -250 5
-107 36 -175 114 -256 30 -31 53 -57 52 -58 -2 -1 -26 -14 -54 -29 -170 -91
-256 -259 -227 -446 29 -188 168 -322 388 -376 102 -25 294 -23 407 4 87 21
171 57 216 93 30 23 40 18 82 -41 l35 -50 219 0 219 0 -19 23 c-11 12 -60 67
-110 122 -49 55 -99 111 -111 125 -13 13 -23 27 -23 30 0 3 23 32 51 65 86
102 161 284 171 415 l3 35 -175 3 -176 2 -11 -64 c-11 -63 -46 -152 -75 -189
-13 -17 -20 -13 -98 61 -47 43 -105 96 -129 118 l-43 40 89 57 c102 64 175
136 206 205 34 73 31 198 -6 274 -49 100 -156 172 -303 203 -86 18 -287 18
-372 0z m274 -251 c66 -32 91 -97 65 -167 -13 -33 -73 -90 -129 -123 l-44 -26
-54 53 c-82 81 -103 144 -69 209 32 62 154 90 231 54z m-40 -786 c90 -89 164
-165 164 -168 0 -4 -28 -22 -62 -40 -51 -27 -77 -34 -139 -38 -67 -4 -84 -1
-130 21 -95 44 -133 97 -133 187 0 70 30 130 86 170 22 17 43 30 46 30 2 0 78
-73 168 -162z"/>
<path d="M1350 2570 l0 -760 201 0 202 0 -5 565 c-3 311 -3 563 0 560 5 -4 79
-228 147 -445 18 -58 75 -234 126 -392 l93 -288 187 0 188 0 188 568 188 567
3 -567 2 -568 200 0 200 0 -2 758 -3 757 -307 3 -306 2 -162 -487 c-90 -269
-166 -492 -170 -496 -4 -5 -13 6 -18 25 -14 44 -235 727 -276 853 l-33 100
-321 3 -322 2 0 -760z"/>
<path d="M3470 2570 l0 -760 200 0 200 0 0 760 0 760 -200 0 -200 0 0 -760z"/>
<path d="M3970 3175 l0 -155 185 0 185 0 0 -605 0 -605 205 0 205 0 0 605 0
605 185 0 c116 0 185 4 185 10 0 6 1 71 1 145 0 74 -1 140 -1 145 0 7 -199 10
-575 10 l-575 0 0 -155z"/>
<path d="M5230 2570 l0 -760 200 0 200 0 0 325 0 325 240 0 240 0 0 -325 0
-325 205 0 205 0 -2 758 -3 757 -202 3 -203 2 0 -290 0 -290 -240 0 -240 0 0
290 0 290 -200 0 -200 0 0 -760z"/>
<path d="M50 825 l0 -775 191 0 191 0 -7 518 -6 517 20 -35 c11 -19 132 -251
268 -515 l248 -480 258 -3 257 -2 0 775 0 775 -190 0 -190 0 5 -517 6 -518
-73 137 c-40 75 -158 308 -263 517 l-190 381 -262 0 -263 0 0 -775z"/>
<path d="M2225 1568 c-93 -10 -237 -56 -315 -100 -68 -39 -187 -156 -225 -222
-69 -119 -106 -270 -106 -441 -1 -246 55 -416 183 -559 106 -119 277 -201 473
-227 118 -15 315 -6 424 21 224 55 401 199 478 391 55 136 78 303 63 458 -20
213 -79 352 -199 472 -88 88 -152 126 -276 168 -140 46 -315 60 -500 39z m283
-293 c34 -11 69 -32 106 -66 97 -88 136 -201 136 -393 1 -230 -70 -385 -208
-453 -50 -25 -68 -28 -152 -28 -84 0 -102 3 -152 28 -139 68 -208 218 -208
452 -1 133 21 235 65 311 35 60 119 131 174 148 61 19 175 20 239 1z"/>
<path d="M3290 810 l0 -760 200 0 200 0 0 300 0 300 64 0 c100 0 126 -9 176
-59 55 -55 85 -124 161 -368 l54 -173 213 0 c116 0 212 2 212 4 0 5 -105 297
-171 475 -27 73 -58 150 -69 171 -19 37 -72 90 -91 90 -20 0 -7 18 18 25 84
21 179 111 214 204 29 76 32 223 6 299 -26 72 -102 153 -180 191 -114 55 -174
61 -612 61 l-395 0 0 -760z m722 447 c51 -22 78 -68 78 -135 0 -130 -84 -182
-297 -182 l-103 0 0 171 0 172 143 -5 c99 -3 153 -10 179 -21z"/>
<path d="M7240 810 l0 -760 187 0 186 0 -7 512 c-3 282 -5 510 -2 507 4 -4 43
-78 188 -359 41 -80 135 -261 208 -402 l133 -258 254 0 253 0 0 760 0 760
-187 0 -188 0 3 -507 3 -508 -258 508 -257 507 -258 0 -258 0 0 -760z"/>
<path d="M4610 800 l0 -760 679 0 679 0 32 83 c17 45 43 117 58 159 l27 78
285 0 285 0 56 -157 56 -158 223 -3 c209 -2 222 -1 217 15 -4 15 -391 1021
-537 1396 l-41 107 -248 0 -248 0 -85 -222 c-47 -123 -157 -412 -244 -642
-120 -317 -160 -412 -162 -388 l-3 32 -300 0 c-164 0 -302 0 -306 0 -5 0 -10
273 -13 607 l-5 608 -202 3 -203 2 0 -760z m1858 169 l89 -284 -180 -3 c-99
-1 -182 0 -185 3 -3 3 37 133 88 290 52 156 95 283 97 281 1 -1 43 -130 91
-287z"/>
<path d="M8780 795 l0 -755 302 -1 c379 -2 403 -1 513 16 195 31 335 95 445
205 117 116 168 234 191 434 9 80 9 131 0 215 -21 196 -74 324 -177 426 -75
75 -148 119 -260 156 -146 49 -232 56 -641 58 l-373 1 0 -755z m662 465 c150
-22 255 -88 316 -198 56 -102 71 -252 42 -397 -25 -120 -120 -231 -234 -274
-66 -25 -214 -44 -306 -39 l-65 3 -3 445 c-1 245 0 451 3 458 5 15 148 16 247
2z"/>
</g>
</svg>
